<?xml version="1.0" encoding="utf-8"?>
<!-- Generator: Adobe Illustrator 23.1.0, SVG Export Plug-In . SVG Version: 6.00 Build 0)  -->
<svg version="1.1" id="图层_1" xmlns="http://www.w3.org/2000/svg" xmlns:xlink="http://www.w3.org/1999/xlink" x="0px" y="0px"
	 viewBox="0 0 138 122" style="enable-background:new 0 0 138 122;" xml:space="preserve">
<style type="text/css">
	.st0{clip-path:url(#SVGID_2_);fill:#FFFFFF;}
</style>
<g>
	<defs>
		<rect id="SVGID_1_" x="-12" y="-6.2" width="157.2" height="136.2"/>
	</defs>
	<clipPath id="SVGID_2_">
		<use xlink:href="#SVGID_1_"  style="overflow:visible;"/>
	</clipPath>
	<path class="st0" d="M101.9,64.6v-6.6v-0.1c0-0.2,0-0.4,0-0.7c-0.2-1.4-1.4-2.4-2.8-2.4c-0.5,0-1.1,0.2-1.5,0.4
		c-0.3,0.2-0.5,0.4-0.7,0.5l-0.1,0.1l-0.6,0.5c-0.4,0.3-0.7,0.6-1.1,0.9c-0.9,0.8-1.9,1.1-3,1.1c-0.1,0-0.1,0-0.2,0
		c-1.1,0-1.9-0.3-2.6-0.8c-0.4-0.3-0.9-0.7-1.4-1.1c-0.2-0.2-0.4-0.4-0.6-0.5c0,0-0.1-0.1-0.1-0.1c-0.2-0.1-0.4-0.4-0.7-0.5
		c-0.5-0.3-1-0.5-1.5-0.5c-0.8,0-1.5,0.3-2,0.9c-0.9-0.6-1.9-0.9-3-0.9l-7,0c-1.9,0.1-3.6,1.4-4.1,3.2c-0.2,0.5-0.3,1.1-0.3,1.8
		c0,0.1,0,0.2,0,0.2c-0.2-0.3-0.4-0.6-0.6-0.9c-0.6-0.9-1.1-1.7-1.7-2.6c-0.2-0.3-0.4-0.6-0.6-0.8c-0.8-0.8-1.8-1.3-2.9-1.3
		c-0.7,0-1.4,0.2-2,0.5c-0.9,0.5-1.4,1.2-1.7,1.7c-0.4,0.6-0.7,1.1-1.1,1.7V58c0-0.2,0-0.4,0-0.7c-0.2-1.5-1.5-2.6-3-2.6h0l-0.1,0
		c-1.4,0-2.6,1.1-2.8,2.5c-0.1,0.3-0.1,0.6-0.1,0.9l0,0.1l0,0.9c0,0.6,0,1.2,0,1.8c0,0.2,0,0.5,0,0.7c0,0.1,0,0.1,0,0.2
		c0,0-0.1,0-0.2,0c-0.1,0-0.2,0-0.3,0c-0.1,0-0.2,0-0.3,0c-0.1,0-0.1,0-0.1,0c0,0,0,0,0-0.1c-0.1-0.3-0.1-0.7-0.1-1.1
		c0-0.5,0-1,0-1.6c0-0.3,0-0.6,0-0.9v-0.1c0-0.2,0-0.5,0-0.8c-0.1-1.3-1.1-2.3-2.4-2.5c-0.2,0-0.4-0.1-0.6-0.1
		c-1.1,0-2.2,0.6-2.6,1.6C45,56.5,45,56.6,45,56.7c0,0,0,0,0,0c-0.4-1.1-1.5-1.9-2.8-1.9c-0.1,0-0.2,0-0.3,0
		c-1.3,0.1-2.3,1.1-2.6,2.3c-0.1,0.3-0.1,0.6-0.1,0.9l0,0.4c-0.1,0-0.1,0-0.2,0c-0.5,0-1,0-1.6,0c-0.1,0-0.3,0-0.4,0
		c0.3-1.1-0.2-2.3-1.1-3c-0.5-0.4-1-0.5-1.6-0.5c-0.6,0-1.3,0.2-1.8,0.7c-0.2,0.2-0.4,0.3-0.5,0.4c0,0-0.1,0.1-0.1,0.1l-0.4,0.3
		c-0.7,0.6-1.3,1.2-2,1.7c-0.5,0.3-0.9,0.4-1.1,0.4l-1.1,0c-0.6,0-1.2-0.2-1.8-0.7c-0.4-0.4-0.8-0.7-1.3-1.1
		c-0.2-0.2-0.4-0.4-0.6-0.5c0,0-0.1-0.1-0.1-0.1c-0.2-0.2-0.4-0.4-0.7-0.6c-0.5-0.3-1-0.5-1.6-0.5c-1.3,0-2.4,0.9-2.7,2.2
		c-0.3,1.1,0.1,2.2,0.9,3.1c0.9,0.9,2.1,2,3.3,2.9c0.6,0.4,1.2,0.7,1.9,1c-0.1,0.3-0.1,0.6-0.1,0.9c0,1.8,1.5,3.2,3.3,3.2h0h0
		c0.9,0,1.7-0.4,2.3-1c0.6-0.6,0.9-1.5,0.9-2.4c0-0.3-0.1-0.6-0.2-0.8c0.6-0.2,1.2-0.5,1.7-0.9c0.1-0.1,0.3-0.2,0.4-0.3
		c0.1,0.1,0.1,0.2,0.1,0.3c0.5,0.8,1.4,1.2,2.3,1.2c0,0,2.8,0,3.7,0c0.2,0,0.4-0.1,0.6-0.1c0.2,0.4,0.3,0.7,0.6,1.1
		c1.1,1.7,2.7,2.6,4.7,2.6l0.1,0c1.1,0,2.1,0,3.2,0c1.1,0,2.2,0,3.3,0l0.1,0c1.2,0,2.3-0.3,3.2-0.9c0.3,0.3,0.6,0.5,0.9,0.7
		c0.4,0.2,0.8,0.3,1.1,0.3c0.5,0,1.5-0.2,2.3-1.3c0.2-0.3,0.5-0.7,0.7-1c0.6,0.8,1.4,1.3,2.4,1.3c0.1,0,0.1,0,0.2,0
		c1.1,0,2-0.5,2.6-1.3l0.4,0.6l0.1,0.1c0.1,0.2,0.3,0.5,0.5,0.7c0.5,0.6,1.3,0.9,2,0.9c0.6,0,1.1-0.2,1.6-0.5
		c0.5,0.3,1.1,0.5,1.7,0.5c1.6,0,3-1.4,3-3c0-0.2,0-0.4,0-0.5c0.2,0,0.4,0,0.6,0c1.8,0.1,3.2,0.7,4.3,2c0.2,0.3,0.5,0.6,0.9,0.9
		c0.5,0.4,1.1,0.6,1.7,0.6c0.5,0,1.1-0.2,1.5-0.4c0.4,0.3,0.9,0.4,1.5,0.4h0l0.1,0c1.4,0,2.5-1,2.7-2.4c0.1-0.3,0.1-0.6,0.1-0.9
		v-0.1l0-0.8c0.3,0.2,0.7,0.3,1,0.4c-0.1,0.2-0.1,0.5-0.1,0.8c0,0.9,0.3,1.7,0.9,2.3c0.6,0.6,1.4,1,2.3,1h0h0c1.8,0,3.2-1.4,3.2-3.2
		c0-0.3,0-0.6-0.1-0.9c0.3-0.1,0.7-0.2,1-0.4c0,0.2,0,0.5,0,0.7l0,0.1c0,0.3,0,0.6,0,0.9c0.2,1.4,1.3,2.4,2.7,2.5l0,0l0.1,0
		c1.4,0,2.6-1,2.8-2.5C101.9,65.1,101.9,64.8,101.9,64.6L101.9,64.6z M27.8,66.1c-0.8,0-1.4-0.5-1.4-1.3c0-0.7,0.6-1.3,1.3-1.3
		c0.7,0,1.3,0.5,1.3,1.2C29.1,65.5,28.5,66.1,27.8,66.1 M31.5,61.4c-1.2,0.8-2.4,1.1-4.4,1.1c-0.8,0-2.2-0.3-3.3-1.2
		c-1.1-0.8-2.1-1.7-3.1-2.7c-0.3-0.3-0.5-0.7-0.4-1.2c0.2-0.6,0.8-0.9,1.3-0.6c0.2,0.2,0.4,0.4,0.6,0.6c0.6,0.6,1.3,1.2,1.9,1.7
		c1,0.8,1.9,1.1,3.4,1.1c0.2,0,0.5,0,0.7,0c1,0,1.6-0.2,2.3-0.7c1-0.6,1.8-1.4,2.6-2.2c0.2-0.2,0.3-0.3,0.5-0.5
		c0.4-0.3,0.7-0.3,1.1-0.1c0.3,0.3,0.5,0.6,0.4,1c-0.1,0.2-0.2,0.5-0.4,0.7C33.8,59.6,32.7,60.6,31.5,61.4 M39,62.3
		c-0.6,0-1.1,0-1.7,0v0c-0.6,0-1.1,0-1.7,0c-0.6,0-1.1-0.6-0.8-1.4c0.1-0.3,0.4-0.6,0.8-0.6c1.1,0,2.3,0,3.4,0c0.6,0,0.9,0.4,0.9,1
		C39.8,61.9,39.5,62.2,39,62.3 M55.8,61.3c0,0.9-0.2,1.8-0.7,2.6c-0.8,1.3-1.9,2-3.5,2c-2.2,0-4.4,0-6.5,0c-1.4,0-2.4-0.6-3.1-1.7
		c-0.5-0.8-0.8-1.7-0.8-2.7c0-1.2,0-2.3,0-3.5c0-0.2,0-0.3,0-0.5c0.1-0.4,0.5-0.7,0.9-0.8c0.4,0,0.9,0.2,1,0.6
		c0.1,0.3,0.1,0.6,0.1,0.8c0,0.9,0,1.9,0,2.8c0,0.3,0,0.6,0,1c0.1,1.2,1.2,1.9,2.1,1.9c0.5,0,1.1,0,1.6,0c0.1,0,0.1-0.1,0.2-0.1
		c0-0.1,0-0.1,0-0.2c-0.4-1-0.4-2-0.4-3c0-0.9,0-1.7,0-2.6c0-0.2,0-0.5,0.1-0.6c0.2-0.4,0.6-0.6,1.1-0.5c0.4,0.1,0.7,0.4,0.8,0.8
		c0,0.2,0,0.4,0,0.7c0,0.8,0,1.7,0,2.5c0,0.5,0.1,1,0.2,1.4c0.2,1,1,1.6,2,1.6c0.2,0,0.4,0,0.7,0c1.1,0,1.9-0.7,2.1-1.8
		c0-0.3,0.1-0.6,0.1-1c0-0.9,0-1.8,0-2.7c0-0.2,0-0.5,0-0.7c0.1-0.5,0.5-0.9,1-0.9c0.5,0,1,0.4,1.1,0.9c0,0.1,0,0.3,0,0.4
		C55.8,59.1,55.8,60.2,55.8,61.3 M62.5,64.9c-0.7,0-1.2-0.6-1.2-1.3c0-0.7,0.6-1.3,1.3-1.3c0.7,0,1.3,0.6,1.3,1.4
		C63.8,64.4,63.2,64.9,62.5,64.9 M69.1,65c0,0.2-0.1,0.4-0.3,0.6c-0.3,0.4-0.9,0.4-1.2,0c-0.1-0.2-0.3-0.4-0.4-0.5
		c-1.2-1.9-2.5-3.8-3.7-5.7c-0.2-0.3-0.4-0.7-0.9-0.9c-0.5,0.1-0.6,0.5-0.8,0.8c-1.1,1.6-2.1,3.2-3.2,4.8c-0.3,0.5-0.6,0.9-0.9,1.4
		c-0.3,0.4-0.7,0.6-1.1,0.4c-0.4-0.2-0.6-0.7-0.5-1.1c0-0.2,0.1-0.4,0.2-0.5c0.2-0.4,0.4-0.7,0.7-1.1c1.2-1.8,2.4-3.7,3.6-5.5
		c0.3-0.4,0.6-0.8,1-1c0.9-0.5,1.9-0.4,2.6,0.4c0.2,0.2,0.3,0.3,0.4,0.5c1.4,2.1,2.8,4.3,4.2,6.4C69,64.3,69.1,64.6,69.1,65
		 M72.5,60.3c0.5,0,0.8,0,1.2,0c1.5,0,3.1,0.2,4.5,0.6c1.8,0.5,3.2,1.5,4.3,3c0.1,0.2,0.2,0.3,0.3,0.5c0.2,0.4,0.1,0.9-0.2,1.1
		c-0.3,0.3-0.8,0.4-1.2,0.1c-0.2-0.1-0.4-0.3-0.5-0.5c-1.5-1.8-3.4-2.6-5.7-2.7c-0.6,0-1.2-0.1-1.8-0.1c-0.2,0-0.5,0-0.8,0
		c0,0.4,0,0.7,0,1c0,0.5,0,1,0,1.5c0,0.6-0.5,1-1,1c-0.5,0-1-0.4-1-0.9c0-0.2,0-0.3,0-0.5c0-1.6,0-3.1,0-4.7c0-0.4,0.1-0.8,0.2-1.2
		c0.3-1,1.3-1.7,2.4-1.8c0.4,0,0.8,0,1.2,0c1.9,0,3.8,0,5.8,0c1,0,1.8,0.3,2.5,1.1c0.4,0.5,0.6,1.1,0.6,1.7c0,0.5-0.4,1-0.8,1
		c-0.6,0.1-1-0.2-1.2-0.7c0-0.1,0-0.1,0-0.2c-0.2-0.6-0.3-0.8-1-0.8c-2.2,0-4.4,0-6.6,0c-0.1,0-0.2,0-0.3,0c-0.3,0-0.5,0.2-0.5,0.5
		C72.5,59.6,72.5,60,72.5,60.3 M92.1,66.1c-0.8,0-1.3-0.5-1.3-1.3c0-0.7,0.5-1.3,1.3-1.3c0.8,0,1.3,0.6,1.3,1.3
		C93.4,65.6,92.8,66.1,92.1,66.1 M100,64.6c0,0.2,0,0.3,0,0.5c-0.1,0.5-0.5,0.8-0.9,0.8c-0.4,0-0.8-0.3-0.8-0.8c0-0.3,0-0.5,0-0.8
		c0-1.2,0-2.4,0-3.6c0-0.2,0-0.4-0.1-0.6c-0.2,0.2-0.5,0.3-0.6,0.4c-0.9,0.7-1.9,1.3-3,1.6c-2.4,0.6-4.6,0.4-6.7-0.9
		c-0.5-0.3-1-0.7-1.5-1.1c-0.2,0.1-0.2,0.3-0.2,0.4c0,1.3,0,2.6,0,3.8c0,0.2,0,0.5,0,0.7c-0.1,0.4-0.5,0.7-0.9,0.8
		c-0.4,0-0.7-0.2-0.9-0.6c-0.1-0.2-0.1-0.4-0.1-0.7c0-2.2,0-4.4,0-6.5c0-0.2,0-0.5,0.1-0.7c0.2-0.6,0.8-0.8,1.3-0.5
		c0.2,0.1,0.4,0.3,0.6,0.5c0.7,0.6,1.3,1.2,2.1,1.7c1.1,0.8,2.3,1.2,3.8,1.2c1.8,0.1,3.3-0.5,4.6-1.6c0.6-0.5,1.1-1,1.7-1.5
		c0.2-0.1,0.3-0.3,0.5-0.4c0.5-0.3,1.2,0,1.3,0.6c0,0.2,0,0.3,0,0.5V64.6z"/>
	<path class="st0" d="M112.5,35.8c0-2.6-0.6-3.6-2.2-3.6c-1.4,0-2.4,0.9-3.7,2.8v10.3c0,0.3-0.3,0.6-0.6,0.6h-3.2
		c-0.3,0-0.6-0.3-0.6-0.6V33.9c0-1.2,0-2.8-0.2-4.4c0-0.3,0.2-0.6,0.6-0.6h2.7c0.3,0,0.5,0.2,0.6,0.5l0.3,2.6h0.1
		c1.6-2.1,3.2-3.6,5.6-3.6c3.5,0,4.8,2.6,4.8,6.9v16.2c0,0.3-0.3,0.6-0.6,0.6h-3.2c-0.3,0-0.6-0.3-0.6-0.6
		C112.4,46.1,112.5,39.8,112.5,35.8"/>
	<path class="st0" d="M124.7,40.4h-5.6c-0.3,0-0.6-0.3-0.6-0.6v-2c0-0.3,0.3-0.6,0.6-0.6h5.6v-5.9c0-0.3,0.3-0.6,0.6-0.6h2.2
		c0.3,0,0.6,0.3,0.6,0.6v5.9h5.6c0.3,0,0.6,0.3,0.6,0.6v2c0,0.3-0.3,0.6-0.6,0.6H128v5.9c0,0.3-0.3,0.6-0.6,0.6h-2.2
		c-0.3,0-0.6-0.3-0.6-0.6V40.4z"/>
	<path class="st0" d="M60.1,117.3C31.3,117.3,6.7,95.2,4.2,66C1.6,35.2,24.5,8,55.3,5.3c16.8-1.5,33.2,4.6,45,16.7
		c0.2,0.2,0.2,0.6,0,0.8l-1.7,1.6c-0.2,0.2-0.6,0.2-0.8,0C86.7,13.1,71.4,7.4,55.6,8.8c-28.9,2.5-50.4,28.1-47.9,57
		c2.5,28.9,28.1,50.4,57,47.9c27.5-2.4,48.5-25.7,48.1-53.2c0-0.3,0.2-0.6,0.5-0.6l2.4-0.1c0.3,0,0.6,0.2,0.6,0.6
		c0.4,29.3-22,54.2-51.3,56.8C63.3,117.3,61.7,117.3,60.1,117.3"/>
</g>
</svg>
