<svg xmlns="http://www.w3.org/2000/svg" viewBox="0 0 100 35">
  <path fill="#000" d="M78.4 20.3c-1.6 0-2.8 1.1-2.8 2.8 0 1.7 1.1 2.8 2.8 2.8 1.7 0 2.8-1.1 2.8-2.8-.1-1.7-1.1-2.8-2.8-2.8zM31.1 35L0 7.5c0-.1 3.8-2.4 7.4-1.5 1.8.4 3.5 1.1 5.4 2.1 5.5 2.7 11.4 5.8 17.3 9.1l16.8 10.9c2.2 1.5 4.4 2.9 6.2 3.8 3.1 1.5 5.5 2 6.8 1.6.4-.1.6-.3.5-.5-.1-.3-.7-.6-1.8-1.2L47.3 26c-4.9-3.1-9.7-6.3-14.2-9.2-2.3-1.5-4.5-2.9-6.5-4.1-1-.6-1.9-1.1-2.7-1.5-.4-.2-.7-.4-1-.5-.1-.1-.3-.1-.4-.2l-.1-.1c-.1 0-.1-.1-.2-.1-.2-.1-.3-.2-.4-.2-.1-.1-.2-.1-.3-.2-.1 0-.1-.1-.2-.1 0 0-.1 0-.1-.1 0 0-.1 0-.1-.1-.1 0-.1-.1-.2-.1 0 0-.1 0-.1-.1 0 0 0 0-.1 0 0 0-.1 0-.1-.1 0 0 0 0-.1 0l-.1-.1h-.1c0 0-.1 0-.1-.1h-.1c0 0 0 0-.1 0h-.1c0 0 0 0-.1 0 0 0-.1 0-.1 0 0 0 0 0-.1 0 0 0-.1 0-.1 0 0 0 0 0-.1 0h-.1c0 0 0 0-.1 0h-.1c0 0 0 0-.1 0h-.2c0 0 0 0-.1 0h-.1c0 0 0 0-.1 0h-.2s0 0-.1 0h-.2s0 0-.1 0h-.2s0 0-.1 0h-.3s0 0-.1 0H19c0 0 0 0-.1 0h-.4c0 0 0 0-.1 0h-.5v.1h-.5v.1h-.6v.1c-.2 0-.4.1-.6.1v.1c-.2 0-.4.1-.6.1 0 0-.1 0-.1.1-.2 0-.3.1-.5.1 0 0-.1 0-.1.1-.2.1-.3.1-.5.2 0 0-.1 0-.1.1-.2.1-.3.1-.4.2l-.1.1c-.1.1-.3.1-.4.2l-.1.1c-.1.1-.2.2-.4.2l-.1.1c-.1.1-.2.2-.3.2l-.1.1c-.1.1-.2.2-.3.3l-.1.1-.3.3-.1.1c-.1.1-.2.2-.2.3l-.1.1c-.1.1-.1.2-.2.3l-.1.1c-.1.1-.1.2-.2.3v.1c-.1.1-.1.2-.1.3v.1c0 .1-.1.2-.1.3v.1c0 .1-.1.2-.1.3v.1c0 .1 0 .2-.1.3v.1c0 .1 0 .2 0 .3v.1c0 .1 0 .2 0 .3v.2c0 .1 0 .2 0 .3v.2c0 .1 0 .2.1.3v.2c0 .1 0 .2.1.3v.1c0 .1.1.2.1.3v.1c0 .1.1.2.1.3l.1.1c.1.1.1.2.2.3l.1.1c.1.1.1.2.2.3l.1.1c.1.1.2.2.2.3l.1.1.3.3.1.1c.1.1.2.2.3.3l.1.1c.1.1.2.2.3.2l.1.1c.1.1.3.2.4.2l.1.1c.1.1.3.1.4.2l.1.1c.2.1.3.1.4.2l.1.1c.2.1.3.1.5.2 0 0 .1 0 .1.1.2.1.3.1.5.1 0 0 .1 0 .1.1.2 0 .4.1.6.1v.1c.2 0 .4.1.6.1v.1h.6v.1h.5v.1h.4c0 0 0 0 .1 0H19s0 0 .1 0h.3s0 0 .1 0h.2s0 0 .1 0h.2s0 0 .1 0h.2c0 0 0 0 .1 0h.1c0 0 0 0 .1 0h.1c0 0 0 0 .1 0h.1c0 0 0 0 .1 0 0 0 .1 0 .1 0 0 0 0 0 .1 0 0 0 .1 0 .1 0 0 0 0 0 .1 0 0 0 .1 0 .1 0 0 0 0 0 .1 0h.1c0 0 0 0 .1 0h.1c0 0 .1 0 .1.1 0 0 0 0 .1 0 0 0 .1 0 .1.1 0 0 0 0 .1 0 0 0 .1 0 .1.1.1 0 .1.1.2.1 0 0 .1 0 .1.1.1 0 .1.1.2.1l.1.1c.1.1.2.1.3.2.1.1.2.1.4.2l.1.1c.8.4 1.7.9 2.7 1.5 2 1.2 4.2 2.6 6.5 4.1 4.5 2.9 9.3 6.1 14.2 9.2l11.3 7.2c1.1.6 1.7.9 1.8 1.2.1.2-.1.4-.5.5-1.3.4-3.7-.1-6.8-1.6-1.8-.9-4-2.3-6.2-3.8L31.1 35z"/>
</svg> 