<svg width="23" height="24" viewBox="0 0 23 24" fill="none" xmlns="http://www.w3.org/2000/svg">
<path d="M11.3281 0C11.5438 0 11.7594 0.046875 11.9563 0.135938L20.7828 3.88125C21.8141 4.31719 22.5828 5.33438 22.5781 6.5625C22.5547 11.2125 20.6422 19.7203 12.5656 23.5875C11.7828 23.9625 10.8735 23.9625 10.0906 23.5875C2.01408 19.7203 0.101584 11.2125 0.0781463 6.5625C0.0734588 5.33438 0.842209 4.31719 1.87346 3.88125L10.7047 0.135938C10.8969 0.046875 11.1125 0 11.3281 0ZM11.3281 3.13125V20.85C17.7969 17.7188 19.536 10.7859 19.5781 6.62813L11.3281 3.13125Z" fill="#00FF00"/>
</svg>
