<svg width="24" height="24" viewBox="0 0 24 24" fill="none" xmlns="http://www.w3.org/2000/svg">
<g clip-path="url(#clip0_14_77)">
<path d="M13.0547 10.1062L1.07815 22.0781C0.637524 22.5187 0.637524 23.2312 1.07815 23.6672C1.51877 24.1031 2.23127 24.1078 2.66721 23.6672L5.33909 20.9953H8.52659C10.8563 20.9953 13.1156 20.3203 15.0422 19.0734C15.5625 18.7359 15.3 17.9953 14.6766 17.9953C14.4375 17.9953 14.2453 17.8031 14.2453 17.5641C14.2453 17.3719 14.3719 17.2078 14.55 17.1516L18.3469 16.0125C18.4641 15.975 18.5719 15.9141 18.661 15.825L19.711 14.775C20.1844 14.3016 19.8469 13.4953 19.1813 13.4953H17.6719C17.4328 13.4953 17.2406 13.3031 17.2406 13.0641C17.2406 12.8719 17.3672 12.7078 17.5453 12.6516L22.7953 11.0766C22.9828 11.0203 23.1422 10.8937 23.2313 10.7156C23.7375 9.73125 24 8.62969 24 7.5C24 5.57812 23.236 3.73594 21.8766 2.37656L21.6188 2.11875C20.2641 0.764062 18.4219 0 16.5 0C14.5781 0 12.736 0.764062 11.3766 2.12344L6.51565 6.98437C4.26565 9.23437 3.00002 12.2859 3.00002 15.4687V18.0609L11.8875 9.17812C12.1781 8.8875 12.6563 8.8875 12.9469 9.17812C13.2 9.43125 13.2328 9.81562 13.05 10.1062H13.0547Z" fill="#00FF00"/>
</g>
<defs>
<clipPath id="clip0_14_77">
<path d="M0 0H24V24H0V0Z" fill="white"/>
</clipPath>
</defs>
</svg>
