<svg width="26" height="36" viewBox="0 0 26 36" fill="none" xmlns="http://www.w3.org/2000/svg">
<path d="M18.6094 27C19.2844 24.757 20.6836 22.8445 22.0688 20.9391C22.4344 20.4398 22.8 19.9406 23.1516 19.4344C24.5438 17.4305 25.3594 15.0047 25.3594 12.382C25.3594 5.54063 19.8188 0 12.9844 0C6.15 0 0.609375 5.54063 0.609375 12.375C0.609375 14.9977 1.425 17.4305 2.81719 19.4273C3.16875 19.9336 3.53437 20.4328 3.9 20.932C5.29219 22.8375 6.69141 24.757 7.35938 26.993H18.6094V27ZM12.9844 36C16.0922 36 18.6094 33.4828 18.6094 30.375V29.25H7.35938V30.375C7.35938 33.4828 9.87656 36 12.9844 36ZM7.35938 12.375C7.35938 12.9937 6.85313 13.5 6.23438 13.5C5.61562 13.5 5.10938 12.9937 5.10938 12.375C5.10938 8.02266 8.63203 4.5 12.9844 4.5C13.6031 4.5 14.1094 5.00625 14.1094 5.625C14.1094 6.24375 13.6031 6.75 12.9844 6.75C9.87656 6.75 7.35938 9.26719 7.35938 12.375Z" fill="#00FF00"/>
</svg>
