<svg width="37" height="36" viewBox="0 0 37 36" fill="none" xmlns="http://www.w3.org/2000/svg">
<g clip-path="url(#clip0_32_89)">
<path d="M19.4531 6.75004C13.9266 6.75004 9.25078 10.3711 7.66172 15.3633C10.0242 14.168 12.6891 13.5 15.5156 13.5H21.7031C22.3219 13.5 22.8281 14.0063 22.8281 14.625C22.8281 15.2438 22.3219 15.75 21.7031 15.75H20.5781H15.5156C14.3484 15.75 13.2164 15.8836 12.1266 16.1297C10.3055 16.5446 8.61094 17.2829 7.10625 18.2883C3.02109 21.0094 0.328125 25.6571 0.328125 30.9375V32.0625C0.328125 32.9977 1.08047 33.75 2.01562 33.75C2.95078 33.75 3.70312 32.9977 3.70312 32.0625V30.9375C3.70312 27.5133 5.15859 24.4336 7.48594 22.275C8.87813 27.5836 13.7086 31.5 19.4531 31.5H19.5234C28.8117 31.4508 36.3281 22.2961 36.3281 11.011C36.3281 8.01567 35.8008 5.16801 34.8445 2.60161C34.6617 2.11645 33.9516 2.13754 33.7055 2.59458C32.3836 5.06958 29.768 6.75004 26.7656 6.75004H19.4531Z" fill="#00FF00"/>
</g>
<defs>
<clipPath id="clip0_32_89">
<path d="M0.328125 0H36.3281V36H0.328125V0Z" fill="white"/>
</clipPath>
</defs>
</svg>
