<svg width="28" height="36" viewBox="0 0 28 36" fill="none" xmlns="http://www.w3.org/2000/svg">
<g clip-path="url(#clip0_32_103)">
<path d="M12.3765 0.38667C13.15 -0.126611 14.1625 -0.126611 14.9359 0.38667L16.1875 1.20933C16.6094 1.48355 17.1015 1.61714 17.6008 1.58901L19.0984 1.49761C20.0265 1.44136 20.8984 1.94761 21.3133 2.77729L21.9883 4.12026C22.2133 4.57026 22.5789 4.92886 23.0219 5.15386L24.3789 5.83589C25.2086 6.25073 25.7148 7.12261 25.6586 8.05073L25.5672 9.54839C25.539 10.0476 25.6726 10.5468 25.9468 10.9617L26.7765 12.2132C27.2898 12.9867 27.2898 13.9992 26.7765 14.7726L25.9468 16.0312C25.6726 16.4531 25.539 16.9453 25.5672 17.4445L25.6586 18.9421C25.7148 19.8703 25.2086 20.7421 24.3789 21.157L23.0359 21.832C22.5859 22.057 22.2273 22.4226 22.0023 22.8656L21.3203 24.2226C20.9054 25.0523 20.0336 25.5585 19.1054 25.5023L17.6078 25.4109C17.1086 25.3828 16.6094 25.5164 16.1945 25.7906L14.9429 26.6203C14.1695 27.1335 13.157 27.1335 12.3836 26.6203L11.125 25.7906C10.7031 25.5164 10.2109 25.3828 9.71169 25.4109L8.21404 25.5023C7.28591 25.5585 6.41404 25.0523 5.99919 24.2226L5.32419 22.8796C5.09919 22.4296 4.73357 22.071 4.2906 21.846L2.93357 21.164C2.10388 20.7492 1.59763 19.8773 1.65388 18.9492L1.74529 17.4515C1.77341 16.9523 1.63982 16.4531 1.3656 16.0382L0.542943 14.7796C0.0296622 14.0062 0.0296622 12.9937 0.542943 12.2203L1.3656 10.9687C1.63982 10.5468 1.77341 10.0546 1.74529 9.55542L1.65388 8.05776C1.59763 7.12964 2.10388 6.25776 2.93357 5.84292L4.27654 5.16792C4.72654 4.93589 5.09216 4.57026 5.31716 4.12026L5.99216 2.77729C6.40701 1.94761 7.27888 1.44136 8.20701 1.49761L9.70466 1.58901C10.2039 1.61714 10.7031 1.48355 11.1179 1.20933L12.3765 0.38667ZM19.2812 13.5C19.2812 12.0081 18.6886 10.5774 17.6337 9.52248C16.5788 8.46758 15.1481 7.87495 13.6562 7.87495C12.1644 7.87495 10.7336 8.46758 9.67875 9.52248C8.62386 10.5774 8.03123 12.0081 8.03123 13.5C8.03123 14.9918 8.62386 16.4225 9.67875 17.4774C10.7336 18.5323 12.1644 19.125 13.6562 19.125C15.1481 19.125 16.5788 18.5323 17.6337 17.4774C18.6886 16.4225 19.2812 14.9918 19.2812 13.5ZM0.247631 31.064L3.2781 23.857C3.29216 23.864 3.29919 23.871 3.30622 23.8851L3.98122 25.2281C4.80388 26.8593 6.51248 27.8507 8.3406 27.7453L9.83826 27.6539C9.85232 27.6539 9.87341 27.6539 9.88747 27.6679L11.139 28.4976C11.4976 28.7296 11.8773 28.9125 12.2711 29.039L9.62732 35.3179C9.4656 35.7046 9.10701 35.9648 8.69216 36C8.27732 36.0351 7.87654 35.8453 7.65154 35.4937L5.38748 32.0273L1.44294 32.6109C1.04216 32.6671 0.641381 32.5054 0.388256 32.189C0.135131 31.8726 0.0859122 31.4367 0.2406 31.064H0.247631ZM17.6851 35.3109L15.0414 29.039C15.4351 28.9125 15.8148 28.7367 16.1734 28.4976L17.425 27.6679C17.439 27.6609 17.4531 27.6539 17.4742 27.6539L18.9719 27.7453C20.8 27.8507 22.5086 26.8593 23.3312 25.2281L24.0062 23.8851C24.0133 23.871 24.0203 23.864 24.0344 23.857L27.0718 31.064C27.2265 31.4367 27.1703 31.8656 26.9242 32.189C26.6781 32.5125 26.2703 32.6742 25.8695 32.6109L21.925 32.0273L19.6609 35.4867C19.4359 35.8382 19.0351 36.0281 18.6203 35.9929C18.2054 35.9578 17.8468 35.6906 17.6851 35.3109Z" fill="#00FF00"/>
</g>
<defs>
<clipPath id="clip0_32_103">
<path d="M0.15625 0H27.1562V36H0.15625V0Z" fill="white"/>
</clipPath>
</defs>
</svg>
